<svg width="285" height="57" viewBox="0 0 285 57" fill="none" xmlns="http://www.w3.org/2000/svg">
<path d="M0 19L12 12V56C12 56.5523 11.5523 57 11 57H1C0.447715 57 0 56.5523 0 56V19Z" fill="white"/>
<path d="M47 1.51935e-06C47.5523 1.54932e-06 48 0.447717 48 1V11C48 11.5523 47.5523 12 47 12L12 12L19 0L47 1.51935e-06Z" fill="white"/>
<path d="M0 19L12 12L19 0L0 19Z" fill="white"/>
<path d="M68 -1.1208e-09C67.4477 2.36393e-08 67 0.447715 67 1L67 12L105 12C105.552 12 106 11.5523 106 11L106 0.999998C106 0.447713 105.552 -1.68467e-06 105 -1.65991e-06L68 -1.1208e-09Z" fill="white"/>
<path d="M95 23C95.5523 23 96 23.4477 96 24L96 32C96 32.5523 95.5523 33 95 33L67 33L67 23L95 23Z" fill="white"/>
<path d="M67 45L74 57L105 57C105.552 57 106 56.5523 106 56L106 46C106 45.4477 105.552 45 105 45H67Z" fill="white"/>
<path d="M55 38L67 45V12L56 12C55.4477 12 55 12.4477 55 13L55 38Z" fill="white"/>
<path d="M67 45L74 57L55 38L67 45Z" fill="white"/>
<path d="M146 12L153 5.842e-07L165 2.15781e-06C165.552 2.23023e-06 166 0.447717 166 1L166 11C166 11.5523 165.552 12 165 12L146 12Z" fill="white"/>
<path d="M146 12L153 5.842e-07L134.966 -8.75511e-07C134.609 -9.04355e-07 134.431 0.430856 134.683 0.682842L146 12Z" fill="white"/>
<path d="M47.0343 57C47.3907 57 47.5691 56.5691 47.3172 56.3172L36.6828 45.6828C36.4309 45.4309 36 45.6093 36 45.9657L36 56C36 56.5523 36.4477 57 37 57L47.0343 57Z" fill="white"/>
<path d="M115 12C114.448 12 114 11.5523 114 11L114 0.999993C114 0.447709 114.448 -6.44171e-06 115 -6.23137e-06L127 -1.66103e-06L134 12L115 12Z" fill="white"/>
<path d="M134 12L146 19L146 56C146 56.5523 145.552 57 145 57L135 57C134.448 57 134 56.5523 134 56L134 12Z" fill="white"/>
<path d="M127 -1.66103e-06L134 12L146 19L127 -1.66103e-06Z" fill="white"/>
<path d="M206 12L213 5.842e-07L225 2.15781e-06C225.552 2.23023e-06 226 0.447717 226 1L226 11C226 11.5523 225.552 12 225 12L206 12Z" fill="white"/>
<path d="M206 12L213 5.842e-07L194.966 -8.75511e-07C194.609 -9.04355e-07 194.431 0.430856 194.683 0.682842L206 12Z" fill="white"/>
<path d="M175 12C174.448 12 174 11.5523 174 11L174 0.999993C174 0.447709 174.448 -6.44171e-06 175 -6.23137e-06L187 -1.66103e-06L194 12L175 12Z" fill="white"/>
<path d="M194 12L206 19L206 56C206 56.5523 205.552 57 205 57L195 57C194.448 57 194 56.5523 194 56L194 12Z" fill="white"/>
<path d="M187 -1.66103e-06L194 12L206 19L187 -1.66103e-06Z" fill="white"/>
<path d="M266 1.18021e-06L273 12H266L246 12L246 1C246 0.447715 246.448 2.64198e-08 247 5.90104e-08L266 1.18021e-06Z" fill="white"/>
<path d="M273 45V56C273 56.5523 272.552 57 272 57H253L246 45H273Z" fill="white"/>
<path d="M285 44C285 44.5523 284.552 45 284 45H273V12L285 19L285 44Z" fill="white"/>
<path d="M246 45L234 38L234 13C234 12.4477 234.448 12 235 12L246 12L246 45Z" fill="white"/>
<path d="M253 57L246 45L234 38L253 57Z" fill="white"/>
<path d="M266 1.18021e-06L273 12L285 19L266 1.18021e-06Z" fill="white"/>
</svg>
