<svg width="286" height="58" viewBox="0 0 286 58" fill="none" xmlns="http://www.w3.org/2000/svg">
<path d="M71 -4.5953e-08C69.8954 3.56728e-09 69 0.895431 69 2L69 12L106 12C107.105 12 108 11.1046 108 10L108 2C108 0.895429 107.105 -1.6646e-06 106 -1.61508e-06L71 -4.5953e-08Z" fill="#1B1B1B"/>
<path d="M96 23C97.1046 23 98 23.8954 98 25L98 31C98 32.1046 97.1046 33 96 33H71C69.8954 33 69 33.8954 69 35L69 38V43C69 44.1046 69.8954 45 71 45H106C107.105 45 108 45.8954 108 47V55C108 56.1046 107.105 57 106 57H76.8284C76.298 57 75.7893 56.7893 75.4142 56.4142L57.5858 38.5858C57.2107 38.2107 57 37.702 57 37.1716L57 14.0001C57 12.8956 57.8954 12.0001 59 12.0001L69 12L69 21C69 22.1046 69.8954 23 71 23L96 23Z" fill="#1B1B1B"/>
<path d="M155 5.842e-07L166 2.02668e-06C167.105 2.17152e-06 168 0.895433 168 2L168 10C168 11.1046 167.105 12 166 12L149.243 12C148.447 12 147.684 11.6839 147.121 11.1213L139.414 3.41421C138.154 2.15428 139.047 -7.96282e-07 140.828 -7.04232e-07L148 -3.33739e-07L155 5.842e-07Z" fill="#1B1B1B"/>
<path d="M118 12C116.895 12 116 11.1046 116 10L116 1.99999C116 0.895425 116.895 -6.27119e-06 118 -5.8505e-06L128.172 -1.97655e-06C128.702 -1.77453e-06 129.211 0.210712 129.586 0.585785L147.414 18.4142C147.789 18.7893 148 19.298 148 19.8284L148 55C148 56.1046 147.105 57 146 57L138 57C136.895 57 136 56.1046 136 55L136 19L136 14C136 12.8954 135.105 12 134 12L129 12L118 12Z" fill="#1B1B1B"/>
<path d="M215 5.842e-07L226 2.02668e-06C227.105 2.17152e-06 228 0.895433 228 2L228 10C228 11.1046 227.105 12 226 12L209.243 12C208.447 12 207.684 11.6839 207.121 11.1213L199.414 3.41421C198.154 2.15428 199.047 -7.96282e-07 200.828 -7.04232e-07L208 -3.33739e-07L215 5.842e-07Z" fill="#1B1B1B"/>
<path d="M178 12C176.895 12 176 11.1046 176 10L176 1.99999C176 0.895425 176.895 -6.27119e-06 178 -5.8505e-06L188.172 -1.97655e-06C188.702 -1.77453e-06 189.211 0.210712 189.586 0.585785L207.414 18.4142C207.789 18.7893 208 19.298 208 19.8284L208 55C208 56.1046 207.105 57 206 57L198 57C196.895 57 196 56.1046 196 55L196 19L196 14C196 12.8954 195.105 12 194 12L189 12L178 12Z" fill="#1B1B1B"/>
<path fill-rule="evenodd" clip-rule="evenodd" d="M72 12H69V15C69 13.3431 70.3431 12 72 12Z" fill="#1B1B1B"/>
<path fill-rule="evenodd" clip-rule="evenodd" d="M66 12H69V9C69 10.6569 67.6569 12 66 12Z" fill="#1B1B1B"/>
<path d="M272 57C273.105 57 274 56.1046 274 55V45H254H249C247.895 45 247 44.1046 247 43V38L247 12L237 12C235.895 12 235 12.8954 235 14L235 37.1716C235 37.702 235.211 38.2107 235.586 38.5858L253.414 56.4142C253.789 56.7893 254.298 57 254.828 57H272Z" fill="#1B1B1B"/>
<path d="M249 1.18021e-07C247.895 5.28397e-08 247 0.895431 247 2L247 12L267 12H272C273.105 12 274 12.8954 274 14V19V45H284C285.105 45 286 44.1046 286 43L286 19.8284C286 19.298 285.789 18.7893 285.414 18.4142L267.586 0.585787C267.211 0.210715 266.702 1.16262e-06 266.172 1.13132e-06L249 1.18021e-07Z" fill="#1B1B1B"/>
<path fill-rule="evenodd" clip-rule="evenodd" d="M250 12H247V15C247 13.3431 248.343 12 250 12Z" fill="#1B1B1B"/>
<path fill-rule="evenodd" clip-rule="evenodd" d="M244 12H247V9C247 10.6569 245.657 12 244 12Z" fill="#1B1B1B"/>
<path fill-rule="evenodd" clip-rule="evenodd" d="M271 45H274V42C274 43.6569 272.657 45 271 45Z" fill="#1B1B1B"/>
<path fill-rule="evenodd" clip-rule="evenodd" d="M277 45H274V48C274 46.3431 275.343 45 277 45Z" fill="#1B1B1B"/>
<path fill-rule="evenodd" clip-rule="evenodd" d="M1 57H11C11.5523 57 12 56.5523 12 56V19V14C12 12.8954 12.8954 12 14 12H19L28.5 12H33.5V7.86805e-07L19.8284 4.49525e-08C19.298 1.61699e-08 18.7893 0.210714 18.4142 0.585786L0.585786 18.4142C0.210714 18.7893 0 19.298 0 19.8284V56C0 56.5523 0.447715 57 1 57Z" fill="#1B1B1B"/>
<path d="M49 12.8284C49 12.298 48.7893 11.7893 48.4142 11.4142L37.5858 0.585786C37.2107 0.210713 36.702 1.29359e-08 36.1716 3.5962e-08L31 2.6046e-07C30.4477 2.84434e-07 30 0.447715 30 1V11C30 11.5523 30.4477 12 31 12H35C36.1046 12 37 12.8954 37 14V19V26C37 27.1046 37.8954 28 39 28H47C48.1046 28 49 27.1046 49 26V12.8284Z" fill="#1B1B1B"/>
<path d="M11.9999 35.0002L29.9412 35L50.3694 55.3782C51.0005 56.0078 50.5546 57.0862 49.6631 57.0862H34.8306C34.2988 57.0862 33.7889 56.8744 33.4136 56.4977L11.9999 35.0002Z" fill="#1B1B1B"/>
<path d="M30.0938 34.9999H12L18.4315 28.5841C18.8065 28.21 19.3144 28 19.844 28H34.6588C35.5488 28 35.9954 29.0752 35.3673 29.7057L30.0938 34.9999Z" fill="#1B1B1B"/>
</svg>
